<svg width="43" height="43" viewBox="0 0 43 43" fill="none" xmlns="http://www.w3.org/2000/svg">
<path d="M33.1897 36.806C33.1897 33.7162 31.9623 30.753 29.7775 28.5682C27.5927 26.3834 24.6294 25.156 21.5397 25.156C18.4499 25.156 15.4867 26.3834 13.3019 28.5682C11.1171 30.753 9.88965 33.7162 9.88965 36.806" stroke="#050000" stroke-width="2.796" stroke-linecap="round" stroke-linejoin="round"/>
<path d="M21.5396 25.156C25.829 25.156 29.3063 21.6788 29.3063 17.3894C29.3063 13.0999 25.829 9.62268 21.5396 9.62268C17.2502 9.62268 13.7729 13.0999 13.7729 17.3894C13.7729 21.6788 17.2502 25.156 21.5396 25.156Z" stroke="#050000" stroke-width="2.796" stroke-linecap="round" stroke-linejoin="round"/>
<path d="M21.5397 40.6894C32.2633 40.6894 40.9564 31.9962 40.9564 21.2727C40.9564 10.5491 32.2633 1.85596 21.5397 1.85596C10.8162 1.85596 2.12305 10.5491 2.12305 21.2727C2.12305 31.9962 10.8162 40.6894 21.5397 40.6894Z" stroke="#050000" stroke-width="2.796" stroke-linecap="round" stroke-linejoin="round"/>
</svg>
