<svg width="42" height="42" viewBox="-0.75 -1 41 40" fill="none" xmlns="http://www.w3.org/2000/svg">
<path d="M13.0652 1.92383L16.7155 5.57417M24.9482 5.57417L28.5985 1.92383M15.0069 11.8846V9.94292C14.9717 9.15606 15.0962 8.37022 15.3731 7.63282C15.65 6.89543 16.0734 6.22178 16.6177 5.65251C17.1621 5.08325 17.8162 4.63018 18.5404 4.32064C19.2647 4.01111 20.0442 3.85152 20.8319 3.85152C21.6195 3.85152 22.399 4.01111 23.1233 4.32064C23.8476 4.63018 24.5016 5.08325 25.046 5.65251C25.5904 6.22178 26.0138 6.89543 26.2906 7.63282C26.5675 8.37022 26.6921 9.15606 26.6569 9.94292V11.8846" stroke="#050000" stroke-width="2.796" stroke-linecap="round" stroke-linejoin="round"/>
<path d="M20.8317 36.8739C14.4241 36.8739 9.18164 31.6314 9.18164 25.2239V19.3989C9.18164 17.339 9.99991 15.3635 11.4564 13.907C12.913 12.4505 14.8885 11.6322 16.9483 11.6322H24.715C26.7748 11.6322 28.7503 12.4505 30.2069 13.907C31.6634 15.3635 32.4817 17.339 32.4817 19.3989V25.2239C32.4817 31.6314 27.2392 36.8739 20.8317 36.8739ZM20.8317 36.8739V19.3989" stroke="#050000" stroke-width="2.796" stroke-linecap="round" stroke-linejoin="round"/>
<path d="M10.2108 15.5156C6.46338 15.1272 3.35671 11.8264 3.35671 7.7489M9.18172 23.2823H1.41504M3.35671 38.8156C3.35671 34.7381 6.65755 31.2431 10.7351 31.0489M38.2485 7.7489C38.2485 11.8264 35.1418 15.1272 31.4527 15.5156M40.2484 23.2823H32.4818M30.9284 31.0489C35.0059 31.2431 38.3068 34.7381 38.3068 38.8156" stroke="#050000" stroke-width="2.796" stroke-linecap="round" stroke-linejoin="round"/>
</svg>
