<svg width="48" height="48" viewBox="-2.5 -8 47 47" fill="none" xmlns="http://www.w3.org/2000/svg">
<path d="M39.4275 9.08963L35.2853 14.0601L32.1786 4.8647C31.8856 3.92363 31.3619 3.11117 30.6764 2.53442C29.991 1.95767 29.1759 1.64369 28.3388 1.63388H13.3315C12.4875 1.61062 11.6578 1.89735 10.9534 2.45566C10.249 3.01398 9.70354 3.81723 9.39015 4.75784L6.28969 14.0601L2.14746 9.08963M10.4319 24.0011H10.4526M31.1431 24.0011H31.1638" stroke="#050000" stroke-width="2.796" stroke-linecap="round" stroke-linejoin="round"/>
<path d="M35.2853 14.0601H6.28969C4.002 14.0601 2.14746 16.2854 2.14746 19.0306V28.9716C2.14746 31.7167 4.002 33.942 6.28969 33.942H35.2853C37.573 33.942 39.4275 31.7167 39.4275 28.9716V19.0306C39.4275 16.2854 37.573 14.0601 35.2853 14.0601Z" stroke="#050000" stroke-width="2.796" stroke-linecap="round" stroke-linejoin="round"/>
<path d="M6.28979 33.9421V38.9126M35.2854 33.9421V38.9126" stroke="#050000" stroke-width="2.796" stroke-linecap="round" stroke-linejoin="round"/>
</svg>
