<svg width="75" height="75" viewBox="0 0 75 75" fill="none" xmlns="http://www.w3.org/2000/svg">
<path d="M38.9029 2.80164L68.2817 58.6627C68.7297 59.5145 68.9655 60.4807 68.9655 61.4643C68.9655 62.4479 68.7297 63.4141 68.2817 64.2659C67.8338 65.1177 67.1895 65.8251 66.4136 66.3169C65.6377 66.8087 64.7575 67.0676 63.8616 67.0676H5.10391C4.20797 67.0676 3.32783 66.8087 2.55193 66.3169C1.77604 65.8251 1.13174 65.1177 0.683779 64.2659C0.235821 63.4141 -5.69014e-06 62.4479 1.02972e-10 61.4643C5.69035e-06 60.4807 0.235844 59.5145 0.683811 58.6627L30.0627 2.80164C32.026 -0.933881 36.9361 -0.933881 38.9029 2.80164ZM34.4828 47.0751C33.5803 47.0751 32.7148 47.4687 32.0767 48.1692C31.4386 48.8697 31.0801 49.8199 31.0801 50.8106C31.0801 51.8013 31.4386 52.7515 32.0767 53.452C32.7148 54.1526 33.5803 54.5461 34.4828 54.5461C35.3852 54.5461 36.2507 54.1526 36.8888 53.452C37.5269 52.7515 37.8854 51.8013 37.8854 50.8106C37.8854 49.8199 37.5269 48.8697 36.8888 48.1692C36.2507 47.4687 35.3852 47.0751 34.4828 47.0751ZM34.4828 20.9264C33.6493 20.9265 32.8449 21.2624 32.2221 21.8704C31.5993 22.4784 31.2014 23.3162 31.1039 24.2249L31.0801 24.6619V39.604C31.081 40.5561 31.4131 41.4719 32.0085 42.1642C32.6038 42.8566 33.4176 43.2732 34.2833 43.329C35.1491 43.3848 36.0016 43.0756 36.6667 42.4645C37.3318 41.8534 37.7592 40.9865 37.8616 40.0411L37.8854 39.604V24.6619C37.8854 23.6712 37.5269 22.7211 36.8888 22.0205C36.2507 21.32 35.3852 20.9264 34.4828 20.9264Z" fill="white"/>
</svg>
