<svg width="46" height="46" viewBox="0 0 46 46" fill="none" xmlns="http://www.w3.org/2000/svg">
<path d="M35.5005 39.6667C35.5005 36.3515 34.1835 33.1721 31.8393 30.8279C29.4951 28.4836 26.3157 27.1667 23.0005 27.1667C19.6853 27.1667 16.5059 28.4836 14.1617 30.8279C11.8174 33.1721 10.5005 36.3515 10.5005 39.6667" stroke="#6E6E6E" stroke-width="3" stroke-linecap="round" stroke-linejoin="round"/>
<path d="M23.0003 27.1667C27.6027 27.1667 31.3337 23.4357 31.3337 18.8333C31.3337 14.231 27.6027 10.5 23.0003 10.5C18.398 10.5 14.667 14.231 14.667 18.8333C14.667 23.4357 18.398 27.1667 23.0003 27.1667Z" stroke="#6E6E6E" stroke-width="3" stroke-linecap="round" stroke-linejoin="round"/>
<path d="M23.0003 43.8334C34.5063 43.8334 43.8337 34.506 43.8337 23C43.8337 11.4941 34.5063 2.16669 23.0003 2.16669C11.4944 2.16669 2.16699 11.4941 2.16699 23C2.16699 34.506 11.4944 43.8334 23.0003 43.8334Z" stroke="#6E6E6E" stroke-width="3" stroke-linecap="round" stroke-linejoin="round"/>
</svg>
