<svg width="50" height="50" viewBox="2 1 44 43.5" fill="none" xmlns="http://www.w3.org/2000/svg">
<path d="M16.6665 4.16667L20.5832 8.08334M29.4165 8.08334L33.3332 4.16667M18.7498 14.8542V12.7708C18.7121 11.9266 18.8458 11.0834 19.1428 10.2922C19.4399 9.501 19.8941 8.7782 20.4782 8.1674C21.0623 7.5566 21.7641 7.07047 22.5412 6.73836C23.3184 6.40624 24.1547 6.23501 24.9998 6.23501C25.845 6.23501 26.6813 6.40624 27.4584 6.73836C28.2356 7.07047 28.9374 7.5566 29.5214 8.1674C30.1055 8.7782 30.5598 9.501 30.8569 10.2922C31.1539 11.0834 31.2876 11.9266 31.2498 12.7708V14.8542" stroke="#6E6E6E" stroke-width="3" stroke-linecap="round" stroke-linejoin="round"/>
<path d="M25 41.6667C18.125 41.6667 12.5 36.0417 12.5 29.1667V22.9167C12.5 20.7065 13.378 18.5869 14.9408 17.0241C16.5036 15.4613 18.6232 14.5833 20.8333 14.5833H29.1667C31.3768 14.5833 33.4964 15.4613 35.0592 17.0241C36.622 18.5869 37.5 20.7065 37.5 22.9167V29.1667C37.5 36.0417 31.875 41.6667 25 41.6667ZM25 41.6667V22.9167" stroke="#6E6E6E" stroke-width="3" stroke-linecap="round" stroke-linejoin="round"/>
<path d="M13.604 18.75C9.58317 18.3333 6.24984 14.7917 6.24984 10.4167M12.4998 27.0833H4.1665M6.24984 43.75C6.24984 39.375 9.7915 35.625 14.1665 35.4167M43.6873 10.4167C43.6873 14.7917 40.354 18.3333 36.3957 18.75M45.8332 27.0833H37.4998M35.8332 35.4167C40.2082 35.625 43.7498 39.375 43.7498 43.75" stroke="#6E6E6E" stroke-width="3" stroke-linecap="round" stroke-linejoin="round"/>
</svg>
